<svg width="210" height="36" viewBox="0 0 210 36" fill="none" xmlns="http://www.w3.org/2000/svg">
<path d="M18.5711 4.78893C17.5527 4.03107 16.2726 3.80624 15.0568 4.17088L6.83311 6.63794C5.13894 7.14651 4 8.67604 4 10.4455V28.0224C4 29.2916 4.58389 30.4539 5.60214 31.2105C6.62059 31.9685 7.90214 32.1932 9.11648 31.8286L15.2555 29.9864C15.0635 29.3533 14.9663 28.6926 14.9663 28.0224V20.0399C14.9663 18.3637 15.5776 16.7627 16.6905 15.5347C17.5073 14.63 18.567 13.9626 19.7512 13.6062L20.1733 13.4856V7.97838C20.1733 6.70915 19.5894 5.54688 18.571 4.78893H18.5711Z" fill="#6C5DD3"/>
<path d="M33.8794 17.5727V25.5552C33.8794 27.3233 32.7418 28.8543 31.0463 29.3614L22.8226 31.8286C22.4416 31.9437 22.0538 31.9999 21.67 31.9999C20.8297 31.9999 20.0074 31.7313 19.3083 31.2104C18.9889 30.972 18.7121 30.6965 18.4845 30.3881C18.2077 30.018 18.0007 29.6055 17.8705 29.1627C17.8691 29.1627 17.8678 29.1627 17.8664 29.164L17.8691 29.1613C17.7636 28.7981 17.7061 28.4157 17.7061 28.0223V20.0399C17.7061 19.2202 17.95 18.4513 18.3805 17.8126C18.8108 17.1738 19.4276 16.664 20.1732 16.3611C20.2925 16.3131 20.4145 16.2691 20.5393 16.2323L21.5453 15.9307L28.7631 13.7651C29.9787 13.4005 31.259 13.6253 32.2773 14.3833C33.2957 15.1412 33.8795 16.3035 33.8795 17.5727H33.8794Z" fill="#6C5DD3"/>
<path d="M49.1754 26.336C50.9754 26.336 52.4394 25.88 53.5674 24.968C54.6954 24.056 55.2714 22.832 55.2714 21.272C55.2714 20.312 55.0074 19.472 54.6474 18.896C54.3354 18.32 53.5674 17.72 53.0634 17.408C52.8234 17.24 52.4634 17.072 52.0074 16.904C51.5514 16.712 51.1914 16.568 50.9274 16.496L49.7754 16.112C48.5274 15.728 47.6874 15.368 47.2314 15.056C46.7994 14.72 46.5834 14.288 46.5834 13.76C46.5834 12.776 47.4234 12.08 48.7914 12.08C50.2554 12.08 51.3354 12.8 52.0074 14.24L54.7914 12.632C53.6394 10.256 51.5034 8.864 48.7914 8.864C47.2794 8.864 45.9594 9.32 44.8794 10.232C43.7994 11.12 43.2714 12.344 43.2714 13.856C43.2714 15.392 43.8234 16.544 44.8554 17.312C45.9114 18.056 46.8234 18.416 48.3354 18.872C49.7034 19.256 50.6394 19.616 51.1674 19.952C51.6954 20.264 51.9594 20.72 51.9594 21.32C51.9594 22.352 51.1194 23.096 49.2714 23.096C47.3514 23.096 46.0554 22.232 45.4074 20.528L42.5754 22.184C43.5114 24.752 45.8394 26.336 49.1754 26.336ZM69.2797 21.272C69.3517 20.816 69.3997 20.408 69.3997 20C69.3997 18.2 68.8237 16.712 67.6717 15.488C66.5437 14.264 65.0797 13.664 63.3277 13.664C61.4797 13.664 59.9437 14.264 58.7677 15.488C57.5917 16.688 56.9917 18.2 56.9917 20C56.9917 21.824 57.5917 23.336 58.7917 24.536C59.9917 25.736 61.5757 26.336 63.5677 26.336C65.8717 26.336 67.6237 25.472 68.7997 23.768L66.3037 22.328C65.7037 23.12 64.7917 23.528 63.6157 23.528C61.7677 23.528 60.6397 22.784 60.2317 21.272H69.2797ZM60.1837 18.872C60.5437 17.336 61.6717 16.448 63.3277 16.448C64.7437 16.448 65.9437 17.24 66.3037 18.872H60.1837ZM83.1313 21.272C83.2033 20.816 83.2513 20.408 83.2513 20C83.2513 18.2 82.6753 16.712 81.5233 15.488C80.3953 14.264 78.9313 13.664 77.1793 13.664C75.3313 13.664 73.7953 14.264 72.6193 15.488C71.4433 16.688 70.8433 18.2 70.8433 20C70.8433 21.824 71.4433 23.336 72.6433 24.536C73.8433 25.736 75.4273 26.336 77.4193 26.336C79.7233 26.336 81.4753 25.472 82.6513 23.768L80.1553 22.328C79.5553 23.12 78.6433 23.528 77.4673 23.528C75.6193 23.528 74.4913 22.784 74.0833 21.272H83.1313ZM74.0353 18.872C74.3953 17.336 75.5233 16.448 77.1793 16.448C78.5953 16.448 79.7953 17.24 80.1553 18.872H74.0353ZM94.4148 15.416C93.5028 14.24 92.2068 13.664 90.5268 13.664C88.9188 13.664 87.5268 14.288 86.3748 15.512C85.2468 16.736 84.6708 18.224 84.6708 20C84.6708 21.776 85.2468 23.288 86.3748 24.512C87.5268 25.736 88.9188 26.336 90.5268 26.336C92.2068 26.336 93.5028 25.76 94.4148 24.584V26H97.5108V9.2H94.4148V15.416ZM88.7028 22.448C88.0788 21.8 87.7668 20.984 87.7668 20C87.7668 19.016 88.0788 18.2 88.7028 17.576C89.3508 16.928 90.1428 16.616 91.1028 16.616C92.0628 16.616 92.8548 16.928 93.4788 17.576C94.1028 18.2 94.4148 19.016 94.4148 20C94.4148 20.984 94.1028 21.8 93.4788 22.448C92.8548 23.072 92.0628 23.384 91.1028 23.384C90.1428 23.384 89.3508 23.072 88.7028 22.448ZM112.006 21.272C112.078 20.816 112.126 20.408 112.126 20C112.126 18.2 111.55 16.712 110.398 15.488C109.27 14.264 107.806 13.664 106.054 13.664C104.206 13.664 102.67 14.264 101.494 15.488C100.318 16.688 99.7183 18.2 99.7183 20C99.7183 21.824 100.318 23.336 101.518 24.536C102.718 25.736 104.302 26.336 106.294 26.336C108.598 26.336 110.35 25.472 111.526 23.768L109.03 22.328C108.43 23.12 107.518 23.528 106.342 23.528C104.494 23.528 103.366 22.784 102.958 21.272H112.006ZM102.91 18.872C103.27 17.336 104.398 16.448 106.054 16.448C107.47 16.448 108.67 17.24 109.03 18.872H102.91ZM117.384 14H114.288V26H117.384V20.264C117.384 19.112 117.744 18.296 118.488 17.792C119.232 17.288 120.096 17.096 121.032 17.216V13.76C119.4 13.76 117.96 14.528 117.384 16.064V14Z" fill="#E8E7F0"/>
</svg>
